<?xml version="1.0" encoding="utf-8"?>
<svg width="500" height="480" viewBox="-426.922 58.496 503.794 490.359" xmlns="http://www.w3.org/2000/svg">
  <desc>Created with Fabric.js 3.6.3</desc>
  <g>
    <title>background</title>
    <rect x="-1" y="-1" width="502" height="482" id="canvas_background" fill="none"/>
  </g>
  <g>
    <title>Layer 1</title>
    <g transform="matrix(0.3333725759876855,0,0,1.9692780337941629,-227.98521144619355,552.012297159975) " id="background-logo"/>
    <g transform="matrix(1.7907132944723825,0,0,1.7907132944723825,722.7855819981804,348.91033992854875) " id="logo-logo">
      <g id="svg_3">
        <g transform="matrix(0.2394936688426411,0,0,-0.2394936688426411,0,0) " id="svg_4">
          <path d="M -1711.126 551.683 L -1757.826 416.963 L -1640.483 202.153 L -1874.143 236.443 L -1797.157 458.483 L -1741.821 618.063 L -1762.314 662.363 L -2503.004 525.993 L -2669.81 -34.887 L -2641.538 -63.417 L -2414.769 -78.687 L -2366.952 -81.907 L -2393.279 2.853 L -2568.9 14.683 L -2455.326 396.543 L -2347.277 243.673 L -2333.136 30.143 L -2324.331 -102.727 L -2312.743 -277.722 L -2487.477 -128.727 L -2583.21 -122.277 L -2280.582 -427.637 L -1668.634 -398.301 L -1527.258 154.113 L -1711.126 551.683 Z M -2262.283 209.713 L -2033.699 176.173 L -2006.086 255.803 L -2283.394 296.493 L -2399.551 460.843 L -1858.077 534.933 L -1940.069 298.473 L -1995.515 138.543 L -2050.562 -20.227 L -2247.933 -6.937 L -2262.283 209.713 Z M -2225.725 -342.109 L -2242.408 -90.297 L -2039.114 -103.987 L -1802.013 -321.797 L -2225.725 -342.109 Z M -1723.921 -281.246 L -1973.985 -51.527 L -1901.746 156.803 L -1622.303 115.793 L -1723.921 -281.246" stroke-linecap="round" stroke=" none" id="svg_5" fill="#8f1f8f" style="transform-box: fill-box; transform-origin: 50% 50%;"/>
        </g>
      </g>
    </g>
  </g>
</svg>